<svg xmlns="http://www.w3.org/2000/svg" width="40" height="39" id="pinterest">
  <path d="M33.212 38.651H7.015c-3.459 0-6.273-2.808-6.273-6.26V6.26C.742 2.808 3.556 0 7.015 0h26.197c3.458 0 6.272 2.808 6.272 6.26v26.132c0 3.452-2.814 6.259-6.272 6.259Zm-18.68-3.073c.697-.878 2.951-5.808 4.373-9.619l.254-.682.545.482c.714.632 1.912 1.023 3.026 1.062.791.028 1.663-.13 2.59-.47 3.722-1.367 5.83-5.33 5.346-10.141-.483-4.807-4.155-8.018-9.412-8.202-4.717-.165-8.873 2.224-9.95 6.408-.699 2.709-.136 5.864 1.117 7.54.626.835 1.344 1.124 1.946.868.709-.302.878-.715.722-1.42a5.364 5.364 0 0 0-.294-.871l-.087-.21-.111-.27c-.344-.836-.522-1.43-.575-2.102-.135-1.658.373-3.15 1.498-4.409 1.106-1.238 3.253-2.028 5.26-1.957 1.968.068 3.719.86 4.917 2.653 1.333 1.995 1.028 4.908-.173 6.813-.63 1-1.973 1.924-3.082 1.885-.464-.016-1.174-.188-1.533-.512-.666-.603-.6-1.207.037-2.964.48-1.32.655-1.966.684-2.796.044-1.25-.965-2.141-2.248-2.186-1.057-.037-1.912.526-2.206 1.433-.227.702-.218 1.272-.053 2.462.13.93-.049 1.283-.193 1.69-.267.748-.986 4.125-1.59 6.725-1.108 4.763-1.605 7.975-1.633 8.561-.005.1-.007.484-.007 1.151.522-.573.8-.88.833-.922Z"></path>
</svg>
